<?xml version="1.0" encoding="utf-8" ?><svg xmlns="http://www.w3.org/2000/svg" xmlns:xlink="http://www.w3.org/1999/xlink" width="1024" height="1024" viewBox="0 0 1024 1024"><path fill="white" d="M0 0L1024 0L1024 1024L0 1024L0 0Z"/><path fill="#2432C2" d="M540.069 347.765C546.145 347.625 552.435 347.557 558.489 347.423C573.942 347.08 573.912 357.867 574.334 369.945L575.221 398.807C575.802 418.617 575.997 435.835 591.279 451.177C598.423 458.305 607.357 463.374 617.14 465.85C626.528 468.209 642.09 467.497 652.328 467.451C665.051 467.365 677.774 467.353 690.497 467.414L690.533 529.616C681.512 538.894 671.18 548.625 661.888 557.891L574.367 645.531L533.819 605.59C523.961 595.712 513.711 584.655 502.883 575.994C494.994 569.684 476.099 569.226 468.125 575.187C453.386 586.205 439.948 603.09 425.783 615.284C416.232 623.498 410.626 635.615 412.228 648.076C413.396 657.157 417.463 663.786 424.421 669.712C430.055 675.001 436.032 680.971 441.422 686.469L520.667 765.952C541.049 786.449 564.158 795.46 592.716 786.743C610.21 781.404 620.036 769.641 632.36 757.218L690.554 699.065L690.543 735.475C690.562 761.302 691.85 778.682 672.857 799.964C660.759 813.519 642.795 820.856 624.772 820.984C607.608 821.106 590.039 821.046 572.737 821.039L473.292 821.027L422.34 821.032C411.106 821.03 396.192 821.512 385.518 819.544C374.229 817.463 361.963 810.389 353.769 802.542C340.771 790.092 333.555 772.818 333.553 754.807C333.551 730.556 333.568 706.203 333.567 681.924L333.557 525.129L333.546 448.668C333.566 417.964 329.8 393.069 353.208 369.021C361.887 359.937 373.063 353.628 385.324 350.889C394.598 348.729 405.02 348.937 414.575 348.807C425.591 348.658 436.606 348.566 447.623 348.529L540.069 347.765Z"/><path fill="white" d="M409.863 503.731C453.252 503.045 497.567 503.518 541.023 503.502L586.246 503.486C594.734 503.485 603.382 503.308 611.861 503.783C614.444 503.983 617.331 504.43 619.18 506.505C626.439 514.652 621.234 525.506 610.473 525.589L476.945 525.549L433.426 525.597C426.745 525.604 407.779 526.598 401.995 523.997C397.242 521.86 395.16 510.961 400.025 506.918C404.068 503.556 404.335 504.022 409.863 503.731Z"/><path fill="white" d="M407.456 445.202C449.407 444.03 492.215 445.683 534.231 445.176C544.715 445.049 549.533 451.168 546.277 461.267C545.074 465 540.355 466.33 537.041 466.925C494.709 467.906 451.753 466.595 409.369 467.008C393.658 467.161 392.495 447.258 407.456 445.202Z"/><path fill="#34C8B0" d="M744.044 508.595C744.391 508.562 744.737 508.536 745.085 508.517C754.037 508.059 761.436 516.164 766.789 522.463C773.139 529.935 785.699 538.851 790.659 546.889C792.709 550.193 793.819 553.994 793.871 557.882C793.9 562.278 792.461 566.558 789.782 570.044C786.401 574.448 776.57 583.721 772.215 588.035L741.283 618.856L633.561 727.025C624.775 735.965 601.141 760.946 591.27 765.482C557.583 780.961 537.207 753.806 516.489 732.781L479.701 695.717C471.722 688.054 436.203 654.747 434.209 647.509C433.062 643.342 434.057 638.596 436.313 634.985C440.894 627.65 449.613 621.793 455.81 615.714C462.552 609.1 468.992 601.458 476.265 595.476C477.988 594.058 479.953 592.7 482.17 592.235C485.089 591.621 488.647 591.896 491.322 593.283C497.086 596.272 513.897 614.235 519.818 620.11C532.847 633.038 545.847 646.069 559.203 658.659C562.739 661.992 566.501 666.963 570.569 669.476C576.788 673.318 583.555 663.508 587.471 659.541C615.91 630.737 645.241 602.747 673.622 573.894C686.683 560.615 700.117 547.753 713.223 534.54C720.593 527.109 727.681 518.561 735.798 511.972C738.394 509.864 740.877 509.305 744.044 508.595Z"/><path fill="#34C8B0" d="M399.908 203.094C404.93 202.909 459.018 223.557 468.426 226.977C478.032 230.459 487.62 233.992 497.188 237.576C501.132 239.048 505.397 240.249 509.217 241.989C510.427 242.541 511.455 243.335 512.329 244.336C513.461 245.633 514.244 247.461 513.838 249.205C513.427 250.968 511.589 252.484 510.038 253.245C500.254 258.045 406.806 291.741 401.037 291.551C395.668 291.374 387.026 287.481 381.78 285.745L344.887 273.504C335.844 270.409 327.161 266.891 317.927 263.876L318.015 298.824C320.341 300.893 322.853 303.301 322.976 306.626C323.158 311.726 324.271 321.192 320.272 325.137C310.273 335.001 300.485 324.472 302.33 312.878C302.626 311.019 302.478 305.474 302.524 303.603C304.299 301.069 305.062 300.38 307.723 298.894C307.788 285.755 307.723 272.615 307.53 259.477C302.134 257.321 289.759 254.136 286.81 250.1C285.857 245.779 288.13 243.761 291.893 242.325C299.491 239.424 307.161 236.736 314.807 233.968L351.01 220.577L382.502 209.031C387.488 207.222 395.074 204.192 399.908 203.094Z"/><path fill="#34C8B0" d="M292.967 298.97C295.895 298.932 296.629 298.708 298.301 301.2C298.8 305.572 292.323 311.428 289.634 314.762C285.249 320.266 281.133 325.979 277.301 331.881C231.37 403.389 244.415 479.458 317.533 526.197C317.508 535.661 317.562 545.125 317.694 554.589C314.574 552.782 311.029 550.425 307.934 548.481C289.25 536.219 272.704 520.974 258.956 503.355C237.347 475.912 226.1 440.003 230.645 405.333C235.107 371.302 253.669 339.504 276.963 314.909C281.578 310.036 287.744 303.04 292.967 298.97Z"/><path fill="#34C8B0" d="M338.416 286.269C347.154 289.888 358.473 293.136 367.647 296.025L402.278 307.137C419.858 301.509 442.815 294.146 459.947 287.67L459.948 332.111L451.149 332.084C438.764 332.046 426.379 332.091 413.994 332.219C380.837 332.61 362.975 336.463 338.52 360.63C338.74 335.843 338.705 311.055 338.416 286.269Z"/><path fill="#2432C2" d="M589.53 352.223C592.068 353.417 606.88 368.892 610.329 372.253L689.273 449.437L689.281 450.369C677.825 450.416 666.371 450.604 654.92 450.932C637.011 451.35 619.457 454.052 604.962 441.129C589.44 427.29 591.775 406.627 591.157 387.728C590.789 375.886 590.247 364.049 589.53 352.223Z"/></svg>